<svg width="184" height="46" viewBox="0 0 184 46" fill="none" xmlns="http://www.w3.org/2000/svg">
<path d="M3.30963 18.1292L5.91673 28.1523C6.48635 30.3431 7.01215 32.3916 7.38459 34.4291H7.50509C7.95421 32.4354 8.60051 30.3212 9.25776 28.1523L12.4783 18.1292H15.4907L18.5469 27.988C19.2809 30.3541 19.8505 32.4354 20.2996 34.4291H20.453C20.8334 32.2703 21.3344 30.1345 21.9537 28.0318L24.7689 18.173H28.3181L21.9537 37.8906H18.6674L15.655 28.4809C14.9649 26.2901 14.3953 24.3293 13.9023 22.007H13.8804C13.3865 24.1983 12.7684 26.3598 12.0292 28.4809L8.85246 37.8577H5.56619L-0.360035 18.1292H3.30963Z" fill="#47585B"/>
<path d="M49.3392 27.8346C49.3392 35.1301 44.2893 38.3068 39.4804 38.3068C34.1348 38.3068 30.016 34.3962 30.016 28.1523C30.016 21.5798 34.3429 17.6801 39.7981 17.6801C45.5053 17.6801 49.3392 21.7989 49.3392 27.8346ZM33.6857 28.0318C33.6857 32.3587 36.1723 35.6121 39.6776 35.6121C43.183 35.6121 45.6696 32.3916 45.6696 27.9442C45.6696 24.6031 44.0045 20.3639 39.7653 20.3639C35.526 20.3639 33.6857 24.2855 33.6857 28.0318Z" fill="#47585B"/>
<path d="M53.8743 24.2855C53.8743 21.9632 53.8743 19.9038 53.71 18.1292H56.8538L56.9743 21.996H57.1387C57.4782 20.79 58.1911 19.7227 59.1752 18.9472C60.1593 18.1718 61.3638 17.7282 62.6157 17.6801C62.9591 17.6763 63.3015 17.7168 63.6345 17.8006V21.1854C63.2347 21.1013 62.827 21.0609 62.4186 21.0649C59.8882 21.0649 58.0917 22.9819 57.6097 25.6657C57.4957 26.2321 57.4333 26.8078 57.4235 27.3855V37.9015H53.8743V24.2855Z" fill="#47585B"/>
<path d="M67.3808 8.91672H70.9628V37.8577H67.3808V8.91672Z" fill="#47585B"/>
<path d="M94.0324 8.91672V32.764C94.0324 34.5167 94.0324 36.5103 94.1967 37.8577H90.9762L90.8228 34.429H90.7352C90.0957 35.6525 89.1222 36.6695 87.9277 37.3617C86.7333 38.054 85.3669 38.3931 83.9874 38.3397C79.2223 38.3397 75.5527 34.3085 75.5527 28.3166C75.5527 21.7441 79.5838 17.7129 84.3927 17.7129C85.5645 17.6369 86.7353 17.8763 87.7833 18.406C88.8313 18.9358 89.7182 19.7367 90.3518 20.7253H90.4285V8.91672H94.0324ZM90.4504 26.1586C90.4554 25.65 90.4003 25.1426 90.2861 24.6469C90.029 23.4619 89.371 22.4017 88.4231 21.6454C87.4752 20.8891 86.2954 20.4829 85.0828 20.4953C81.3694 20.4953 79.1676 23.7816 79.1676 28.1632C79.1676 32.1506 81.1284 35.4587 84.9952 35.4587C86.2296 35.4549 87.4253 35.0275 88.3823 34.2479C89.3394 33.4683 89.9998 32.3837 90.2532 31.1756C90.387 30.6532 90.4533 30.1157 90.4504 29.5763V26.1586Z" fill="#47585B"/>
<path d="M104.318 13.397V18.1292H109.456V20.813H104.318V31.4495C104.318 33.9032 105.02 35.2835 107.013 35.2835C107.715 35.3122 108.418 35.2309 109.094 35.0425L109.259 37.7263C108.239 38.1028 107.158 38.2849 106.071 38.263C105.352 38.2997 104.634 38.1795 103.966 37.9109C103.299 37.6423 102.697 37.2317 102.204 36.7075C101.186 35.6121 100.813 33.9032 100.813 31.581V20.813H97.7569V18.1292H100.813V14.5034L104.318 13.397Z" fill="#FFBA08"/>
<path d="M113.498 24.2855C113.498 21.9632 113.498 19.9038 113.334 18.1292H116.478L116.598 21.996H116.762C117.102 20.79 117.815 19.7227 118.799 18.9472C119.783 18.1718 120.988 17.7282 122.24 17.6801C122.583 17.6763 122.925 17.7168 123.258 17.8006V21.1854C122.859 21.1013 122.451 21.0609 122.042 21.0649C119.512 21.0649 117.661 22.9819 117.233 25.6657C117.129 26.2184 117.074 26.7793 117.069 27.3417V37.8577H113.52L113.498 24.2855Z" fill="#FFBA08"/>
<path d="M130.992 12.5864C130.992 13.1761 130.758 13.7417 130.341 14.1588C129.924 14.5758 129.358 14.8101 128.768 14.8101C128.178 14.8101 127.613 14.5758 127.196 14.1588C126.779 13.7417 126.545 13.1761 126.545 12.5864C126.537 12.2894 126.59 11.994 126.7 11.7182C126.81 11.4423 126.975 11.1918 127.186 10.9817C127.396 10.7717 127.646 10.6066 127.922 10.4964C128.198 10.3862 128.493 10.3332 128.79 10.3408C129.083 10.3392 129.374 10.3966 129.645 10.5094C129.916 10.6223 130.161 10.7883 130.366 10.9977C130.572 11.2072 130.733 11.4557 130.84 11.7286C130.948 12.0015 130.999 12.2932 130.992 12.5864ZM126.994 37.8577V18.1402H130.587V37.8577H126.994Z" fill="#FFBA08"/>
<path d="M136.568 24.5703C136.568 22.0399 136.48 20.0024 136.403 18.1292H139.624L139.777 21.5141H139.854C140.564 20.2981 141.591 19.2986 142.827 18.6231C144.062 17.9476 145.458 17.6216 146.865 17.6801C151.63 17.6801 155.223 21.7112 155.223 27.7032C155.223 34.8015 150.841 38.3069 146.251 38.3069C145.058 38.3595 143.871 38.1015 142.808 37.5581C141.744 37.0147 140.839 36.2046 140.183 35.2068H140.095V45.92H136.568V24.5703ZM140.106 29.8283C140.118 30.3214 140.173 30.8125 140.27 31.2962C140.571 32.495 141.263 33.5591 142.238 34.3192C143.212 35.0794 144.413 35.4921 145.649 35.4916C149.439 35.4916 151.641 32.3916 151.641 27.8237C151.641 23.8692 149.559 20.4953 145.769 20.4953C144.503 20.5312 143.285 20.9862 142.306 21.7892C141.326 22.5921 140.641 23.6974 140.358 24.9318C140.207 25.4073 140.123 25.9012 140.106 26.3996V29.8283Z" fill="#FFBA08"/>
<path d="M-1.45546 35.2178C99.871 44.6384 159.462 18.1292 159.462 18.1292C159.462 18.1292 117.562 47.9137 -3 42.1408" fill="#F5F8FA"/>
<path d="M100.857 32.8626C137.674 27.2212 157.819 18.2387 157.819 18.2387C157.819 18.2387 137.006 32.4792 102.391 37.0033" stroke="#FFBA08" stroke-miterlimit="10"/>
<path d="M5.02944 35.9846C36.9868 38.59 69.137 37.5426 100.857 32.8626" stroke="#47585B" stroke-miterlimit="10"/>
<path d="M174.316 22.489C173.746 18.9179 173.22 15.544 172.662 12.0277L171.764 12.7617C169.763 14.5258 167.463 15.9171 164.972 16.8695C164.58 17.0413 164.152 17.1132 163.726 17.0787C163.299 17.0443 162.888 16.9047 162.529 16.6723C160.985 15.6864 159.385 14.7663 157.797 13.8242C158.035 13.4763 158.368 13.2045 158.757 13.0413C159.145 12.8781 159.573 12.8304 159.988 12.9041C161.239 13.0374 162.497 13.0996 163.756 13.0903C164.151 13.0841 164.534 12.9538 164.852 12.7178C169.233 8.99341 173.615 5.25437 177.997 1.50073C179.135 0.498454 180.61 -0.037461 182.126 9.17108e-06C183.485 9.17108e-06 184.054 0.898254 183.474 2.19085C183.153 2.83889 182.71 3.41907 182.17 3.8997C180.888 5.0718 179.552 6.17818 178.216 7.28455C178.042 7.4121 177.899 7.57649 177.797 7.7659C177.695 7.95531 177.636 8.16502 177.624 8.37997C177.339 12.0825 176.989 15.785 176.704 19.4875C176.701 19.8625 176.607 20.2312 176.43 20.5615C176.252 20.8918 175.997 21.1737 175.685 21.3826C175.21 21.7273 174.753 22.0966 174.316 22.489Z" fill="#47585B"/>
<path d="M162.244 6.92306C163.263 6.04672 163.975 4.90749 165.618 5.15943C167.261 5.41138 168.904 5.42233 170.635 5.54283L171.194 5.61951C169.945 6.71493 168.806 7.63508 167.656 8.58809C167.59 8.63572 167.515 8.6691 167.436 8.68608C167.357 8.70306 167.275 8.70327 167.196 8.68668C165.662 8.2047 164.128 7.71176 162.606 7.20786C162.496 7.175 162.42 7.06546 162.244 6.92306Z" fill="#47585B"/>
</svg>
